# xmcd
#
# Track frame offsets:
#	150
#	25450
#	54184
#	73966
#	95630
#	123190
#	154171
#	179335
#	209171
#	233159
#	259595
#	288946
#
# Disc length: 4115 seconds
#
# Revision: 1
# Processed by: cddbd v1.5.2PL0 Copyright (c) Steve Scherf et al.
# Submitted via: audiograbber 1.83.01
#
DISCID=af10110c
DTITLE=Swing Oldies - Autumn Leaves
DYEAR=2002
DGENRE=Swing
TTITLE0=Back At The Chicken Shack
TTITLE1=Autumn Leaves
TTITLE2=Out Of Nowhere
TTITLE3=Undecieded
TTITLE4=Doxy
TTITLE5=Satin Doll
TTITLE6=Perdido
TTITLE7=Moonlight In Vermont
TTITLE8=C-Jam Blues
TTITLE9=Equinox
TTITLE10=Softly As....
TTITLE11=Honeysuckle Rose
EXTD=
EXTT0=
EXTT1=
EXTT2=
EXTT3=
EXTT4=
EXTT5=
EXTT6=
EXTT7=
EXTT8=
EXTT9=
EXTT10=
EXTT11=
PLAYORDER=
